<?xml version="1.0" standalone="no"?><!DOCTYPE svg PUBLIC "-//W3C//DTD SVG 1.1//EN" "http://www.w3.org/Graphics/SVG/1.1/DTD/svg11.dtd"><svg t="1724855720587" class="icon" viewBox="0 0 1026 1024" version="1.1" xmlns="http://www.w3.org/2000/svg" p-id="20828" xmlns:xlink="http://www.w3.org/1999/xlink" width="16.03125" height="16"><path d="M778.79375 843.59375h-543.375L124.94375 388.25 386 496.25l129.31875-228.15 123.58125 218.1375 257.56875-105.24375-117.675 462.6z m-479.1375-81.675h415.6875l61.9875-244.06875-174.09375 71.15625-87.91875-155.25-93.825 165.54375-179.26875-74.19375 57.43125 236.8125z" fill="#8a8a8a" p-id="20829"></path><path d="M515.43125 208.475m-74.41875 0a74.41875 74.41875 0 1 0 148.8375 0 74.41875 74.41875 0 1 0-148.8375 0Z" fill="#8a8a8a" p-id="20830"></path><path d="M105.2 354.6125m-43.2 0a43.2 43.2 0 1 0 86.4 0 43.2 43.2 0 1 0-86.4 0Z" fill="#8a8a8a" p-id="20831"></path><path d="M920.99375 354.6125m-43.2 0a43.2 43.2 0 1 0 86.4 0 43.2 43.2 0 1 0-86.4 0Z" fill="#8a8a8a" p-id="20832"></path></svg>