<?xml version="1.0" standalone="no"?><!DOCTYPE svg PUBLIC "-//W3C//DTD SVG 1.1//EN" "http://www.w3.org/Graphics/SVG/1.1/DTD/svg11.dtd"><svg t="1724392112322" class="icon" viewBox="0 0 1024 1024" version="1.1" xmlns="http://www.w3.org/2000/svg" p-id="6963" xmlns:xlink="http://www.w3.org/1999/xlink" width="16" height="16"><path d="M505.824 946.928c-233.712 0-423.848-190.144-423.848-423.848 0-233.712 190.136-423.84 423.848-423.84 233.704 0 423.848 190.136 423.848 423.84 0 233.712-190.144 423.848-423.848 423.848z m0-799.696c-207.24 0-375.848 168.6-375.848 375.84s168.608 375.848 375.848 375.848c207.248 0 375.848-168.608 375.848-375.848s-168.608-375.84-375.848-375.84z" p-id="6964" fill="#fff"></path><path d="M505.824 832c-170.336 0-308.912-138.576-308.912-308.92 0-170.328 138.576-308.904 308.912-308.904 170.328 0 308.912 138.576 308.912 308.904C814.728 693.424 676.152 832 505.824 832z m0-585.832c-152.688 0-276.912 124.216-276.912 276.904 0 152.696 124.224 276.92 276.912 276.92 152.696 0 276.912-124.224 276.912-276.92-0.008-152.68-124.224-276.904-276.912-276.904z" p-id="6965" fill="#fff"></path><path d="M507.256 723.56c-109.872 0-199.264-89.392-199.264-199.264S397.376 325.04 507.256 325.04s199.264 89.384 199.264 199.256-89.384 199.264-199.264 199.264z m0-366.52c-92.224 0-167.264 75.032-167.264 167.256 0 92.232 75.032 167.264 167.264 167.264s167.264-75.032 167.264-167.264c0-92.224-75.032-167.256-167.264-167.256z" p-id="6966" fill="#fff"></path><path d="M508 396a16 16 0 0 1-16-16V115.56a16 16 0 0 1 32 0V380a16 16 0 0 1-16 16zM508 939.56a16 16 0 0 1-16-16V668a16 16 0 0 1 32 0v255.56a16 16 0 0 1-16 16zM892 539.56h-232a16 16 0 0 1-16-16c0-8.832 7.168-15.56 16-15.56h232c8.832 0 16 6.728 16 15.56a16 16 0 0 1-16 16zM364 539.56h-264a16 16 0 0 1-16-16c0-8.832 7.168-15.56 16-15.56h264c8.832 0 16 6.728 16 15.56a16 16 0 0 1-16 16zM484 572a23.984 23.984 0 0 1-16.968-40.968l456-456a23.984 23.984 0 0 1 33.936 0 23.984 23.984 0 0 1 0 33.936l-456 456a23.928 23.928 0 0 1-16.968 7.032z" p-id="6967" fill="#fff"></path><path d="M860 188a24 24 0 0 1-24-24v-88a24 24 0 1 1 48 0v88a24 24 0 0 1-24 24zM796 252a24 24 0 0 1-24-24v-88a24 24 0 1 1 48 0v88a24 24 0 0 1-24 24z" p-id="6968" fill="#fff"></path><path d="M900 260h-88a24 24 0 1 1 0-48h88a24 24 0 1 1 0 48zM948 196h-88a24 24 0 1 1 0-48h88a24 24 0 1 1 0 48zM484 564a24 24 0 0 1-24-24v-88a24 24 0 1 1 48 0v88a24 24 0 0 1-24 24z" p-id="6969" fill="#fff"></path><path d="M580 572h-88a24 24 0 1 1 0-48h88a24 24 0 1 1 0 48z" p-id="6970" fill="#fff"></path></svg>