<?xml version="1.0" encoding="UTF-8"?>
<svg width="18px" height="18px" viewBox="0 0 18 18" version="1.1" xmlns="http://www.w3.org/2000/svg" xmlns:xlink="http://www.w3.org/1999/xlink">
    <title>icon-lemon</title>
    <g id="页面-1" stroke="none" stroke-width="1" fill="none" fill-rule="evenodd">
        <g id="1.1.1概况" transform="translate(-1044, -27)">
            <g id="编组-5" transform="translate(1028, 12)">
                <g id="icon-lemon" transform="translate(15.998, 15)">
                    <rect id="矩形" x="0.00204163228" y="0" width="18" height="18"></rect>
                    <path d="M13.7997082,15.4628014 C13.6176863,15.0065023 13.5084671,14.5137226 13.5267369,14.0026256 C13.5448837,13.7471079 13.5812697,13.4914977 13.6359562,13.2542049 C13.8726339,12.5606129 14,11.8123155 14,11.0274143 C14,7.13951224 10.8686266,4 6.99092659,4 C6.13525757,4 5.31597448,4.16430101 4.55137793,4.43810518 C4.36935603,4.47461652 4.16906427,4.49293386 3.96877252,4.49293386 C3.40446772,4.49293386 2.87642582,4.36511335 2.40316273,4.12782051 C2.20287098,4.03651133 1.98446315,4 1.74775471,4 C0.782866408,4 0,4.78490119 0,5.75232821 C0,5.98962105 0.0546557815,6.20859655 0.127489147,6.40940889 C0.345896972,6.86570807 0.473386119,7.37680508 0.473386119,7.90609609 C0.473386119,8.30772077 0.400552753,8.69099728 0.273094363,9.03782412 C0.0910724643,9.6584243 0,10.315505 0,10.990903 C0,14.8605186 3.13137336,18 6.99092659,18 C7.73737631,18 8.44734784,17.8904043 9.12099496,17.671398 C9.43047524,17.5800888 9.75813312,17.5254143 10.0858833,17.5254143 C10.5591464,17.5254143 11.0143549,17.6167235 11.4148154,17.7992185 C11.651493,17.9270082 11.9428573,18 12.2340985,18 C13.1989868,18 13.9818532,17.2150988 13.9818532,16.2477026 C14,15.9922158 13.9271974,15.7000943 13.7997082,15.4628014 Z" id="Fill-10" fill="#F5C41E"></path>
                    <path d="M3.02716902,1.74020569 C3.02716902,2.36191335 3.35889344,2.93636743 3.89733312,3.24726719 C4.4356503,3.55804446 5.09909913,3.55804446 5.63741631,3.24726719 C6.175856,2.93636743 6.50758041,2.36191335 6.50758041,1.74020569 C6.50758041,0.779117504 5.72846291,0 4.76737472,0 C3.80628653,0 3.02716902,0.779117504 3.02716902,1.74020569 Z" id="Fill-11" fill="#6FBA30"></path>
                    <path d="M2.60395699,12.3290881 C2.83691423,12.2425019 3.09595533,12.3611591 3.18254148,12.5941163 C3.72986809,14.0666808 4.70005946,14.873262 6.14180802,15.0661563 C6.38814122,15.0991137 6.56111649,15.3255234 6.5281591,15.5718566 C6.49520171,15.8181898 6.26879195,15.9911651 6.02245875,15.9582077 C4.24396998,15.7202603 2.99989583,14.6859831 2.33892871,12.9076725 C2.25234255,12.6747153 2.37099976,12.4156742 2.60395699,12.3290881 Z" id="路径" fill="#FFFFFF" fill-rule="nonzero"></path>
                </g>
            </g>
        </g>
    </g>
</svg>