<?xml version="1.0" standalone="no"?><!DOCTYPE svg PUBLIC "-//W3C//DTD SVG 1.1//EN" "http://www.w3.org/Graphics/SVG/1.1/DTD/svg11.dtd"><svg t="1724079213759" class="icon" viewBox="0 0 1024 1024" version="1.1" xmlns="http://www.w3.org/2000/svg" p-id="3531" xmlns:xlink="http://www.w3.org/1999/xlink" width="200" height="200"><path d="M669.94130179 262.32620694l-90.52314021 45.58618549 21.89562695 43.523923c-1.03113126 0.38190046-1.807662 1.03113126-2.69876346 1.68036204-2.96609379 2.31686301-12.23354464 8.50365051-19.96066441 9.91668163-15.04687825 1.87131227-24.36524956-5.77942681-37.3498653-1.54033166-7.34521871 1.807662-18.42033214 8.50365051-30.65387681 17.51650144-11.2024134-6.31408746-30.25924651-16.23076969-41.20705998-17.64380141-9.29291108-1.12024117-25.37092057 1.807662-29.62274612 1.41303172-6.56868797-0.52193083-15.19963844-5.53755673-18.92953317-8.10902024l23.56325859-46.7446167-90.39583966-45.5861849L206.4796294 555.28205231l90.53587002 45.45888554 112.29146601-222.91530042c6.1867875 3.85719469 19.19686349 10.68048315 30.55203706 10.68048256 9.64935189 0 15.30147875-2.99155343 26.10926187-1.6549018 3.85719469 0.50920042 12.88277543 4.50642547 22.53212733 9.39475139a1096.49988028 1096.49988028 0 0 0-50.99644225 45.0769845c-18.22938191 19.5405739-18.50944265 43.62576272-4.50642547 60.1111329 16.30714979 20.29164442 35.73315354 15.28874835 52.67680429 8.27451024l48.00488823-24.78534007c6.96331825-3.67897426 11.80072432-6.22497755 11.864374-6.12313723l101.59825364 87.82437615c3.47529422 3.09339376 5.66485668 7.20518894 6.04675713 11.85164476 0.38190046 4.76102596-1.03113126 9.26745144-4.124525 12.74274505-10.94781347 12.88277543-18.92953315 6.04675713-18.92953315 6.04675774l-19.57876336-15.05960865-15.83613941 20.34256487s14.77954793 11.16422333 19.4514634 15.19963844c2.82606344 2.43143316 3.09339376 4.63372543 2.83879384 6.44138801-0.25460051 3.60259418-2.57146292 7.98171968-6.44138802 12.48814514-5.91945718 6.95058843-10.29858269 8.88555097-13.5192764 8.88555039-2.96609379 0-4.88832593-1.68036204-5.91945717-2.57146292a4268.41236788 4268.41236788 0 0 0-23.18135812-16.99457062l-15.45423895 20.6098952 22.65942789 16.86727006c2.69876347 2.57146292 2.96609379 4.63372543 2.83879324 6.56868797-0.38190046 3.47529422-2.83879325 8.10901963-6.69598793 12.74274566-4.124525 4.63372543-8.23632019 7.85441974-11.97894473 8.88555097-2.17683264 0.58558052-3.97176481 0.78926115-7.20518893-1.68036204l-27.56048304-22.40482736-16.23076968 19.9606644 26.40205182 21.50099608c3.47529422 2.83879325 3.72989472 5.15565626 3.47529421 7.20518834-0.38190046 3.60259418-2.83879325 8.10901963-6.82328846 12.75547548a17.41466112 17.41466112 0 0 1-11.72434423 6.04675773c-4.63372543 0.38190046-9.14015089-1.1584312-13.39197584-4.63372602l-123.16289941-103.77508568c-5.79215723-4.25182496-13.7738769-3.09339376-18.02570186 2.57146293s-3.09339376 13.7738769 2.57146291 18.02570186l122.64096858 103.26588526a42.72193202 42.72193202 0 0 0 27.81508414 10.29858269c15.70883886-0.63650096 24.82353011-6.92512821 32.97073978-15.07233849 11.45701389-11.45701389 12.88277543-28.06968405 12.88277544-28.71891483 0.77653075-0.25460051 19.45146339-8.88555097 26.91125284-17.64380141 10.89689302-12.18262478 12.87004563-24.89991021 12.88277543-28.84621478 9.14015089-1.93496255 18.29303219-7.59981922 26.40205243-17.12187058 7.85441974-9.26745144 12.10624469-19.18413308 12.6154451-28.46431492 0.50920042-0.12729996 16.03981946-4.67191547 26.00742153-16.99457061 4.25182496-5.0283563 7.20518894-10.82051293 8.75825044-17.12187057 0.50920042-0.25460051 33.2253403-22.27752682 33.22534031-22.27752683l16.23076968 32.19420906L817.5203706 555.28205231 669.94130179 262.32620694zM285.54575511 566.22986578l-44.42775368-22.40482737 124.27041073-246.9877594 44.55505425 22.40482736L285.54575511 566.22986578z m389.42390238-4.63372542a43.38389262 43.38389262 0 0 0-11.07511343-14.55040765l-107.9123405-93.36193344a12.99734557 12.99734557 0 0 0-14.1685072-1.807662c-1.93496255 0.90383129-48.09399814 25.10359025-64.29930819 34.48561183-8.78371066 5.04108612-19.26051317 5.83034726-25.33273053-3.2970744-5.83034726-8.61822065-3.27161417-16.70178007 2.45689278-22.43028702 35.54220331-33.47994082 81.10292858-71.31354631 92.71270266-74.05049982 12.24627505-3.39891413 19.23505353 3.57713453 35.92410318 1.68036204 12.90823566-1.08205111 25.62552109-10.82051293 29.7500461-13.7738769l86.01671473 170.76042752-24.0724596 16.34533984zM614.05653359 319.24210637l44.42775431-22.40482736L782.88199858 543.82503841l-44.55505425 22.40482737-124.27041074-246.98775941z" fill="#515151" p-id="3532"></path></svg>