<?xml version="1.0" standalone="no"?><!DOCTYPE svg PUBLIC "-//W3C//DTD SVG 1.1//EN" "http://www.w3.org/Graphics/SVG/1.1/DTD/svg11.dtd"><svg t="1724855749962" class="icon" viewBox="0 0 1024 1024" version="1.1" xmlns="http://www.w3.org/2000/svg" p-id="21991" xmlns:xlink="http://www.w3.org/1999/xlink" width="16" height="16"><path d="M512 1024C229.226667 1024 0 794.773333 0 512S229.226667 0 512 0s512 229.226667 512 512-229.226667 512-512 512z m0-128c78.762667 0 151.936-23.786667 212.864-64.469333L192.469333 299.136A382.016 382.016 0 0 0 128 512c0 212.074667 171.925333 384 384 384z m0-768a381.802667 381.802667 0 0 0-225.216 73.450667l535.765333 535.765333A381.802667 381.802667 0 0 0 896 512c0-212.074667-171.925333-384-384-384z" fill="#707070" p-id="21992"></path></svg>